<svg width="245" height="150" viewBox="0 0 245 150" fill="none" xmlns="http://www.w3.org/2000/svg">
<g clip-path="url(#clip0_6_86)">
<path d="M125.684 121.3L40.0358 143.417C37.1305 144.164 34.0485 143.724 31.4659 142.195C28.8833 140.666 27.011 138.172 26.2597 135.26L0.358835 34.3913C-0.385782 31.4779 0.052424 28.3872 1.57732 25.7974C3.10221 23.2075 5.58926 21.33 8.49285 20.5767L88.1749 0.000305176L108.568 9.15563L133.818 107.485C134.563 110.398 134.125 113.489 132.6 116.079C131.075 118.669 128.588 120.547 125.684 121.3Z" fill="#F2F2F2"/>
<path d="M9.30347 23.7392C7.23576 24.2756 5.46465 25.6126 4.37871 27.4569C3.29278 29.3012 2.9807 31.5021 3.51093 33.5768L29.4135 134.446C29.9484 136.52 31.2817 138.296 33.1208 139.385C34.9599 140.474 37.1547 140.787 39.2236 140.255L124.872 118.138C126.94 117.602 128.711 116.265 129.797 114.42C130.883 112.576 131.195 110.375 130.665 108.3L105.806 11.4938L87.8825 3.44757L9.30347 23.7392Z" fill="white"/>
<path d="M108.351 9.67687L95.0954 13.0999C94.1277 13.3497 93.1007 13.2038 92.2402 12.6944C91.3798 12.1849 90.7564 11.3535 90.5073 10.3831L87.9862 0.565506C87.9752 0.522548 87.9765 0.47736 87.99 0.435112C88.0034 0.392865 88.0284 0.355264 88.0622 0.326616C88.096 0.297969 88.1371 0.279433 88.1808 0.273124C88.2246 0.266816 88.2693 0.272989 88.3097 0.290943L108.388 9.23239C108.432 9.25232 108.47 9.28569 108.495 9.32787C108.519 9.37005 108.531 9.41895 108.527 9.4678C108.523 9.51665 108.503 9.56301 108.472 9.60047C108.44 9.63793 108.398 9.66464 108.351 9.67687Z" fill="#F2F2F2"/>
<path d="M101.377 95.8159L62.3826 105.886C61.8999 106.008 61.3887 105.933 60.9607 105.678C60.5328 105.423 60.2229 105.009 60.0988 104.525C59.9747 104.042 60.0464 103.529 60.2983 103.098C60.5502 102.668 60.9618 102.355 61.4431 102.228L100.438 92.1571C100.678 92.0936 100.928 92.0784 101.174 92.1123C101.42 92.1462 101.657 92.2284 101.871 92.3544C102.085 92.4804 102.272 92.6476 102.422 92.8464C102.571 93.0452 102.68 93.2717 102.742 93.5128C102.804 93.7539 102.818 94.0049 102.783 94.2514C102.747 94.4979 102.664 94.7349 102.537 94.949C102.41 95.163 102.243 95.3498 102.044 95.4986C101.844 95.6474 101.618 95.7552 101.377 95.8159Z" fill="#CCCCCC"/>
<path d="M110.488 100.047L63.9678 112.06C63.7277 112.123 63.4775 112.139 63.2315 112.105C62.9855 112.071 62.7487 111.989 62.5345 111.863C62.3204 111.737 62.1332 111.569 61.9837 111.371C61.8342 111.172 61.7254 110.945 61.6634 110.704C61.6015 110.463 61.5878 110.212 61.6229 109.966C61.6581 109.719 61.7415 109.482 61.8683 109.268C61.9952 109.054 62.163 108.867 62.362 108.719C62.5611 108.57 62.7876 108.462 63.0283 108.401L109.548 96.388C110.031 96.2663 110.542 96.3411 110.97 96.5961C111.398 96.8512 111.708 97.2657 111.832 97.7491C111.956 98.2325 111.884 98.7455 111.633 99.1761C111.381 99.6066 110.969 99.9197 110.488 100.047Z" fill="#CCCCCC"/>
<path d="M46.4672 118.014C50.1445 118.014 53.1256 115.024 53.1256 111.337C53.1256 107.649 50.1445 104.66 46.4672 104.66C42.7898 104.66 39.8088 107.649 39.8088 111.337C39.8088 115.024 42.7898 118.014 46.4672 118.014Z" fill="#A8A8A8"/>
<path d="M97.2308 78.3421L45.4417 91.7107C43.945 92.0952 42.3573 91.8687 41.0269 91.0808C39.6965 90.2929 38.7321 89.008 38.3453 87.5079L27.4926 45.2284C27.1095 43.7277 27.3356 42.1359 28.1213 40.8021C28.9069 39.4683 30.188 38.5014 31.6836 38.1135L83.4724 24.7449C84.9691 24.3603 86.5568 24.5869 87.8872 25.3748C89.2176 26.1626 90.182 27.4476 90.5688 28.9477L101.422 71.2271C101.805 72.7279 101.579 74.3197 100.793 75.6535C100.007 76.9873 98.7264 77.9542 97.2308 78.3421Z" fill="white"/>
<path d="M97.2308 78.3421L45.4417 91.7107C43.945 92.0952 42.3573 91.8687 41.0269 91.0808C39.6965 90.2929 38.7321 89.008 38.3453 87.5079L27.4926 45.2284C27.1095 43.7277 27.3356 42.1359 28.1213 40.8021C28.9069 39.4683 30.188 38.5014 31.6836 38.1135L83.4724 24.7449C84.9691 24.3603 86.5568 24.5869 87.8872 25.3748C89.2176 26.1626 90.182 27.4476 90.5688 28.9477L101.422 71.2271C101.805 72.7279 101.579 74.3197 100.793 75.6535C100.007 76.9873 98.7264 77.9542 97.2308 78.3421ZM31.8544 38.7781C30.5348 39.1207 29.4045 39.9741 28.7116 41.1513C28.0186 42.3284 27.8195 43.7331 28.158 45.0572L39.011 87.3367C39.3526 88.66 40.2037 89.7934 41.3776 90.4883C42.5514 91.1832 43.9522 91.3828 45.2726 91.0434L97.0604 77.6762C98.38 77.3336 99.5102 76.4801 100.203 75.303C100.896 74.1259 101.095 72.7212 100.757 71.3971L89.9047 29.1176C89.5631 27.7943 88.712 26.6609 87.5381 25.966C86.3643 25.2711 84.9635 25.0714 83.6431 25.4108L31.8544 38.7781Z" fill="#E6E6E6"/>
<path d="M80.8449 38.9598L54.7085 45.7067C54.4801 45.7707 54.2359 45.7453 54.0254 45.6357C53.8149 45.5261 53.6537 45.3404 53.5744 45.1163C53.5375 44.9991 53.5249 44.8756 53.5371 44.7534C53.5494 44.6311 53.5864 44.5127 53.6458 44.4052C53.7053 44.2978 53.786 44.2036 53.8829 44.1285C53.9798 44.0533 54.091 43.9988 54.2097 43.9682L80.8155 37.1002C81.8904 37.6464 81.6075 38.7633 80.8453 38.9601L80.8449 38.9598Z" fill="#F2F2F2"/>
<path d="M82.0242 43.5558L55.8878 50.3028C55.6593 50.3667 55.4152 50.3413 55.2047 50.2317C54.9942 50.1221 54.833 49.9365 54.7537 49.7123C54.7168 49.5951 54.7041 49.4717 54.7164 49.3494C54.7287 49.2272 54.7657 49.1087 54.8251 49.0013C54.8846 48.8938 54.9652 48.7997 55.0621 48.7245C55.1591 48.6494 55.2703 48.5948 55.3889 48.5642L81.9948 41.6962C83.0697 42.2424 82.7867 43.3593 82.0245 43.5562L82.0242 43.5558Z" fill="#F2F2F2"/>
<path d="M50.9098 54.3802L42.9331 56.4386C42.8041 56.4719 42.6698 56.4794 42.5379 56.4607C42.406 56.442 42.2791 56.3974 42.1643 56.3295C42.0496 56.2615 41.9494 56.1716 41.8694 56.0648C41.7893 55.958 41.7311 55.8364 41.6979 55.7071L39.2746 46.2696C39.2414 46.1403 39.2339 46.0056 39.2526 45.8733C39.2712 45.7411 39.3157 45.6138 39.3834 45.4988C39.4512 45.3837 39.5409 45.2832 39.6474 45.2029C39.7539 45.1227 39.8751 45.0643 40.0041 45.031L47.9808 42.9719C48.2413 42.9051 48.5176 42.9445 48.7492 43.0817C48.9807 43.2188 49.1486 43.4424 49.216 43.7035L51.6392 53.1432C51.6725 53.2725 51.68 53.4072 51.6613 53.5395C51.6426 53.6717 51.5982 53.799 51.5304 53.9141C51.4627 54.0291 51.373 54.1296 51.2665 54.2099C51.16 54.2901 51.0388 54.3486 50.9098 54.3818V54.3802Z" fill="#A8A8A8"/>
<path d="M84.3653 52.9903L44.4754 63.2872C44.2469 63.3511 44.0028 63.3257 43.7923 63.2161C43.5817 63.1065 43.4206 62.9209 43.3413 62.6967C43.3044 62.5795 43.2917 62.4561 43.304 62.3338C43.3163 62.2116 43.3533 62.0931 43.4127 61.9857C43.4721 61.8782 43.5528 61.7841 43.6497 61.7089C43.7467 61.6338 43.8579 61.5792 43.9765 61.5486L84.3359 51.1304C85.4108 51.6765 85.1275 52.7935 84.3653 52.9903Z" fill="#F2F2F2"/>
<path d="M85.5466 57.5886L45.656 67.8858C45.4275 67.9498 45.1834 67.9244 44.9729 67.8148C44.7623 67.7052 44.6012 67.5196 44.5219 67.2954C44.485 67.1782 44.4723 67.0547 44.4846 66.9325C44.4969 66.8102 44.5339 66.6918 44.5933 66.5843C44.6528 66.4769 44.7334 66.3827 44.8303 66.3076C44.9273 66.2324 45.0385 66.1779 45.1571 66.1473L85.5165 55.729C86.5914 56.2752 86.3084 57.3921 85.5463 57.589L85.5466 57.5886Z" fill="#F2F2F2"/>
<path d="M86.7255 62.185L46.8356 72.4819C46.6071 72.5458 46.3629 72.5204 46.1524 72.4108C45.9419 72.3012 45.7807 72.1156 45.7014 71.8914C45.6646 71.7743 45.6519 71.6508 45.6641 71.5285C45.6764 71.4063 45.7134 71.2878 45.7729 71.1804C45.8323 71.0729 45.913 70.9788 46.0099 70.9036C46.1069 70.8285 46.218 70.7739 46.3367 70.7433L86.6957 60.3251C87.7706 60.8712 87.4877 61.9882 86.7255 62.185Z" fill="#F2F2F2"/>
<path d="M87.9063 66.7833L48.0161 77.0802C47.7876 77.1442 47.5435 77.1188 47.333 77.0092C47.1224 76.8996 46.9613 76.7139 46.882 76.4897C46.8451 76.3726 46.8324 76.2491 46.8447 76.1269C46.857 76.0046 46.894 75.8861 46.9534 75.7787C47.0129 75.6713 47.0935 75.5771 47.1905 75.502C47.2874 75.4268 47.3986 75.3723 47.5172 75.3416L87.8766 64.9234C88.9511 65.4696 88.6685 66.5865 87.9063 66.7833Z" fill="#F2F2F2"/>
<path d="M89.086 71.3793L49.196 81.6762C48.9676 81.7402 48.7234 81.7148 48.5129 81.6052C48.3024 81.4956 48.1412 81.3099 48.0619 81.0857C48.025 80.9686 48.0123 80.8451 48.0246 80.7228C48.0369 80.6006 48.0739 80.4821 48.1333 80.3747C48.1928 80.2673 48.2734 80.1731 48.3704 80.098C48.4673 80.0228 48.5785 79.9683 48.6972 79.9376L89.0565 69.5194C90.1311 70.0656 89.8481 71.1825 89.086 71.3793Z" fill="#F2F2F2"/>
<path d="M46.9585 113.677C46.8136 113.715 46.6603 113.704 46.5219 113.647L46.5133 113.643L44.6995 112.872C44.6154 112.836 44.5393 112.784 44.4753 112.719C44.4113 112.654 44.3608 112.576 44.3267 112.491C44.2925 112.406 44.2754 112.315 44.2762 112.224C44.2771 112.132 44.2959 112.042 44.3316 111.958C44.3674 111.873 44.4193 111.797 44.4845 111.733C44.5497 111.669 44.6268 111.618 44.7116 111.584C44.7963 111.549 44.8869 111.532 44.9782 111.533C45.0695 111.534 45.1598 111.553 45.2438 111.589L46.4191 112.09L47.9592 108.457C48.0313 108.287 48.1679 108.152 48.3389 108.083C48.5098 108.014 48.7012 108.016 48.8709 108.088L48.8617 108.112L48.8712 108.088C49.0408 108.16 49.1748 108.297 49.2437 108.469C49.3127 108.64 49.3109 108.832 49.2389 109.002L47.427 113.274C47.3849 113.373 47.3208 113.46 47.2397 113.53C47.1585 113.599 47.0624 113.649 46.9589 113.676L46.9585 113.677Z" fill="white"/>
<path d="M210.287 147.892L123.001 131.403C120.042 130.84 117.426 129.125 115.728 126.632C114.029 124.14 113.388 121.074 113.943 118.108L133.279 15.4148C133.841 12.4501 135.554 9.82957 138.042 8.12817C140.529 6.42677 143.589 5.78341 146.55 6.33924L227.755 21.6795L242.408 38.7072L223.558 138.815C222.997 141.78 221.284 144.401 218.796 146.103C216.308 147.804 213.248 148.448 210.287 147.892Z" fill="#E6E6E6"/>
<path d="M145.943 9.56102C143.834 9.16524 141.655 9.62339 139.883 10.8349C138.112 12.0465 136.892 13.9125 136.492 16.0236L117.155 118.714C116.76 120.826 117.217 123.009 118.426 124.784C119.636 126.559 121.499 127.78 123.606 128.181L210.895 144.669C213.003 145.065 215.182 144.607 216.954 143.395C218.726 142.184 219.945 140.318 220.345 138.207L238.903 39.6524L226.027 24.6885L145.943 9.56102Z" fill="white"/>
<path d="M210.646 52.9657L171.099 45.3344C170.609 45.2397 170.175 44.9493 169.893 44.527C169.611 44.1048 169.505 43.5853 169.598 43.0828C169.69 42.5803 169.974 42.136 170.386 41.8477C170.798 41.5593 171.306 41.4505 171.796 41.5452L211.344 49.1767C211.835 49.2714 212.269 49.5618 212.55 49.9841C212.832 50.4064 212.938 50.9259 212.846 51.4283C212.753 51.9308 212.47 52.3751 212.057 52.6634C211.645 52.9518 211.138 53.0606 210.647 52.9659L210.646 52.9657Z" fill="#A8A8A8"/>
<path d="M217.061 60.7111L169.886 51.5977C169.395 51.5029 168.961 51.2122 168.68 50.7895C168.398 50.3668 168.292 49.8467 168.384 49.3437C168.477 48.8406 168.76 48.3959 169.173 48.1072C169.585 47.8185 170.092 47.7096 170.583 47.8044L217.758 56.9177C218.249 57.0125 218.683 57.3032 218.964 57.726C219.246 58.1487 219.352 58.6687 219.26 59.1718C219.167 59.6748 218.884 60.1196 218.472 60.4082C218.059 60.6969 217.552 60.8058 217.061 60.7111Z" fill="#A8A8A8"/>
<path d="M205.907 77.2234L166.361 69.5923C165.871 69.4976 165.363 69.6064 164.951 69.8947C164.539 70.183 164.255 70.6273 164.163 71.1297C164.07 71.6321 164.176 72.1516 164.458 72.5738C164.74 72.996 165.173 73.2864 165.664 73.3811L205.21 81.0122C205.698 81.0995 206.199 80.9866 206.606 80.698C207.013 80.4094 207.293 79.9683 207.384 79.4701C207.476 78.972 207.372 78.4569 207.096 78.0364C206.819 77.6159 206.392 77.3238 205.907 77.2234Z" fill="#CCCCCC"/>
<path d="M212.322 84.9653L165.148 75.852C164.903 75.8014 164.652 75.801 164.407 75.8509C164.162 75.9008 163.93 76.0001 163.723 76.1428C163.516 76.2856 163.339 76.469 163.202 76.6825C163.065 76.896 162.971 77.1352 162.925 77.3864C162.879 77.6376 162.882 77.8957 162.933 78.1457C162.985 78.3957 163.085 78.6326 163.227 78.8427C163.369 79.0529 163.55 79.232 163.76 79.3697C163.97 79.5074 164.205 79.601 164.451 79.645L211.625 88.7582C211.869 88.8089 212.121 88.8092 212.366 88.7593C212.61 88.7094 212.842 88.6102 213.049 88.4674C213.256 88.3247 213.433 88.1413 213.57 87.9278C213.707 87.7143 213.802 87.475 213.848 87.2238C213.894 86.9727 213.891 86.7146 213.839 86.4646C213.787 86.2146 213.687 85.9776 213.545 85.7675C213.403 85.5574 213.222 85.3783 213.012 85.2405C212.802 85.1028 212.568 85.0093 212.322 84.9653Z" fill="#CCCCCC"/>
<path d="M199.773 109.061L160.226 101.43C159.735 101.335 159.301 101.045 159.02 100.623C158.738 100.2 158.632 99.6808 158.724 99.1783C158.817 98.6758 159.1 98.2316 159.513 97.9432C159.925 97.6549 160.432 97.5461 160.923 97.6407L200.471 105.272C200.961 105.367 201.395 105.657 201.677 106.08C201.959 106.502 202.065 107.021 201.972 107.524C201.88 108.026 201.596 108.471 201.184 108.759C200.772 109.047 200.264 109.156 199.774 109.061L199.773 109.061Z" fill="#CCCCCC"/>
<path d="M206.188 116.806L159.013 107.693C158.522 107.598 158.088 107.307 157.806 106.885C157.525 106.462 157.419 105.942 157.511 105.439C157.604 104.936 157.887 104.491 158.299 104.202C158.712 103.914 159.219 103.805 159.71 103.9L206.885 113.013C207.376 113.108 207.809 113.398 208.091 113.821C208.373 114.244 208.479 114.764 208.386 115.267C208.294 115.77 208.01 116.215 207.598 116.503C207.186 116.792 206.679 116.901 206.188 116.806Z" fill="#CCCCCC"/>
<path d="M153.152 49.9105C156.779 50.5965 160.274 48.2038 160.959 44.5662C161.643 40.9287 159.257 37.4238 155.63 36.7378C152.003 36.0518 148.508 38.4445 147.823 42.0821C147.139 45.7196 149.525 49.2245 153.152 49.9105Z" fill="#A8A8A8"/>
<path d="M153.269 45.7145C153.121 45.6868 152.986 45.6116 152.885 45.5003L152.878 45.4934L151.558 44.0164C151.438 43.8776 151.376 43.6967 151.388 43.5128C151.399 43.329 151.482 43.157 151.619 43.0342C151.755 42.9113 151.935 42.8474 152.118 42.8564C152.301 42.8653 152.474 42.9464 152.598 43.082L153.453 44.0405L156.395 41.395C156.463 41.3336 156.543 41.2864 156.629 41.2559C156.715 41.2255 156.807 41.2124 156.898 41.2175C156.99 41.2226 157.079 41.2457 157.162 41.2855C157.245 41.3254 157.319 41.3811 157.38 41.4497L157.361 41.4667L157.38 41.4491C157.504 41.5876 157.567 41.7695 157.557 41.9549C157.547 42.1402 157.464 42.314 157.326 42.4379L153.865 45.5484C153.785 45.62 153.689 45.6721 153.586 45.7008C153.483 45.7294 153.374 45.7338 153.269 45.7135L153.269 45.7145Z" fill="white"/>
<path d="M156.194 72.7439C156.031 73.609 155.701 74.4336 155.221 75.1705C154.74 75.9074 154.12 76.5422 153.395 77.0387C152.67 77.5353 151.855 77.8837 150.996 78.0642C150.137 78.2447 149.251 78.2537 148.388 78.0907C148.332 78.0812 148.275 78.0682 148.22 78.052C146.935 77.7745 145.76 77.1232 144.843 76.1795C143.925 75.2357 143.305 74.0415 143.061 72.7463C142.816 71.451 142.958 70.1122 143.469 68.8975C143.98 67.6827 144.836 66.6459 145.931 65.9168C147.027 65.1877 148.312 64.7987 149.626 64.7985C150.941 64.7983 152.226 65.1868 153.322 65.9155C154.417 66.6442 155.274 67.6807 155.785 68.8953C156.296 70.1099 156.438 71.4486 156.194 72.7439Z" fill="#A8A8A8"/>
<path d="M142.279 106.006C145.906 106.692 149.401 104.299 150.085 100.661C150.77 97.0239 148.384 93.519 144.757 92.833C141.129 92.147 137.634 94.5398 136.95 98.1773C136.266 101.815 138.652 105.32 142.279 106.006Z" fill="#A8A8A8"/>
<path d="M241.992 39.5697L228.502 37.0137C227.517 36.8271 226.646 36.2551 226.081 35.4235C225.516 34.5919 225.303 33.5689 225.489 32.5795L227.369 22.5696C227.377 22.5258 227.397 22.4852 227.427 22.4525C227.458 22.4198 227.496 22.3963 227.539 22.3846C227.582 22.373 227.627 22.3737 227.67 22.3868C227.712 22.3998 227.75 22.4245 227.779 22.4582L242.214 39.1801C242.246 39.2173 242.266 39.2637 242.271 39.3127C242.275 39.3617 242.265 39.411 242.24 39.4537C242.216 39.4964 242.179 39.5304 242.134 39.551C242.09 39.5716 242.04 39.5778 241.992 39.5687L241.992 39.5697Z" fill="#CCCCCC"/>
<path d="M162.28 139.069C161.866 139.75 161.2 140.237 160.428 140.425C159.655 140.612 158.841 140.485 158.162 140.07L123.209 118.69C122.531 118.275 122.045 117.607 121.858 116.833C121.671 116.058 121.798 115.241 122.212 114.561C122.625 113.881 123.292 113.393 124.064 113.206C124.836 113.018 125.651 113.146 126.329 113.561L161.282 134.94C161.96 135.355 162.446 136.023 162.633 136.798C162.82 137.572 162.693 138.389 162.28 139.069Z" fill="#3F3D56"/>
<path d="M127.327 117.691C124.858 121.749 121.246 124.982 116.945 126.981C112.645 128.98 107.85 129.656 103.167 128.922C98.4833 128.188 94.1223 126.078 90.6349 122.859C87.1474 119.64 84.6902 115.456 83.574 110.836C82.4578 106.217 82.7327 101.369 84.3639 96.9061C85.9951 92.4431 88.9094 88.5655 92.7383 85.7635C96.5671 82.9615 101.139 81.3609 105.875 81.1643C110.61 80.9676 115.298 82.1837 119.345 84.6587C122.032 86.302 124.37 88.4601 126.225 91.0095C128.081 93.559 129.417 96.4499 130.158 99.5173C130.899 102.585 131.031 105.768 130.545 108.887C130.059 112.005 128.965 114.997 127.327 117.691ZM91.5213 95.7887C89.6702 98.8323 88.7606 102.358 88.9077 105.92C89.0547 109.482 90.2517 112.92 92.3474 115.8C94.443 118.68 97.3432 120.871 100.681 122.098C104.019 123.325 107.645 123.532 111.1 122.692C114.555 121.853 117.684 120.005 120.092 117.382C122.499 114.759 124.077 111.479 124.626 107.957C125.175 104.434 124.67 100.828 123.174 97.5936C121.679 94.3592 119.261 91.6421 116.226 89.7858C112.156 87.2966 107.267 86.5306 102.634 87.6564C98.0009 88.7822 94.0035 91.7075 91.5213 95.7887Z" fill="#3F3D56"/>
<path d="M100.529 122.606C110.267 125.969 120.879 120.778 124.232 111.013C127.585 101.248 122.409 90.6062 112.671 87.2438C102.933 83.8814 92.3213 89.0718 88.9683 98.8369C85.6153 108.602 90.7912 119.244 100.529 122.606Z" fill="#A8A8A8"/>
</g>
<defs>
<clipPath id="clip0_6_86">
<rect width="245" height="150" fill="white"/>
</clipPath>
</defs>
</svg>
